# xmcd
# 
# Track frame offsets:
#     150
#     15797
#     34992
#     53747
#     70250
#     89092
#     108947
#     131162
#     152175
#     175140
# 
# Disc length: 2604
# 
# Revision: 1
# Processed by: cddbd v1.5.2PL0 Copyright (c) Steve Scherf et al.
# Submitted via: BonkEnc v1.0.5
# 
DISCID=800a2a0a
DTITLE=ZABADAK - 私は羊
DYEAR=1991
DGENRE=
TTITLE0=小さい宇宙
TTITLE1=サンタ・サングレ
TTITLE2=砂の扉
TTITLE3=私は羊
TTITLE4=遠い国の友達
TTITLE5=失われし者達へ
TTITLE6=夏を見渡す部屋
TTITLE7=雨の音が聞こえる
TTITLE8=天使に近い夢
TTITLE9=同じ色の海
EXTD=YEAR: 1991
EXTT0=
EXTT1=
EXTT2=
EXTT3=
EXTT4=
EXTT5=
EXTT6=
EXTT7=
EXTT8=
EXTT9=
PLAYORDER=
